<?xml version="1.0" encoding="iso-8859-1"?>
<!-- Uploaded to: SVG Repo, www.svgrepo.com, Generator: SVG Repo Mixer Tools -->
<svg fill="#000000" height="40" width="82" version="1.1" id="Capa_1" xmlns="http://www.w3.org/2000/svg" xmlns:xlink="http://www.w3.org/1999/xlink" 
	 viewBox="0 0 58.638 58.638" xml:space="preserve">
<g>
	<g>
		<g>
			<path d="M37.137,23.12c-0.195,0.195-0.451,0.293-0.707,0.293s-0.512-0.098-0.707-0.293c-0.391-0.391-0.391-1.023,0-1.414
				l21.5-21.5l-2.49,0.033c-1.752,0.111-3.491,0.314-5.213,0.59l-24.412,24.37h3.535c0.552,0,1,0.448,1,1s-0.448,1-1,1h-5.539
				l-3.005,3h11.544c0.552,0,1,0.448,1,1s-0.448,1-1,1H18.096l-16.1,16.073l9.242-0.744l-0.749,9.311l13.639-13.64h-8.485
				c-0.552,0-1-0.448-1-1c0-0.552,0.448-1,1-1h10.485l2-2h-5.485c-0.552,0-1-0.448-1-1c0-0.552,0.448-1,1-1h7.485L58.013,9.314
				c0.283-1.735,0.49-3.485,0.602-5.249l0.023-2.448L37.137,23.12z"/>
			<path d="M12.643,32.199c-0.552,0-1-0.448-1-1s0.448-1,1-1h4.625l3.005-3h-4.63c-0.552,0-1-0.448-1-1s0.448-1,1-1h6.634
				L46.006,1.51C24.001,6.49,5.385,24.519,0.076,47.116L0,47.439l15.265-15.24C15.265,32.199,12.643,32.199,12.643,32.199z"/>
			<path d="M33.643,37.199c0.552,0,1,0.448,1,1c0,0.552-0.448,1-1,1h-2.687l-2.053,2.053c0.423,0.117,0.739,0.488,0.739,0.947
				c0,0.552-0.448,1-1,1h-1.687L11.724,58.432c22.578-5.42,40.586-23.865,45.596-45.596L32.956,37.199H33.643z"/>
		</g>
	</g>
</g>
</svg>